<svg width="24" height="24" viewBox="0 0 24 24" fill="none" xmlns="http://www.w3.org/2000/svg">
<g id="Icon">
<path id="Vector" d="M12.375 17.625C12.3747 18.0199 12.2706 18.4078 12.0729 18.7496C11.8753 19.0915 11.5912 19.3754 11.2491 19.5727C10.907 19.7699 10.519 19.8737 10.1241 19.8736C9.7292 19.8734 9.3413 19.7693 8.99938 19.5718C8.65745 19.3742 8.37354 19.0901 8.17618 18.7481C7.97881 18.4061 7.87494 18.0181 7.875 17.6232C7.87507 17.2283 7.97906 16.8404 8.17654 16.4984C8.37401 16.1564 8.65801 15.8724 9 15.675V11.25C9 10.9516 9.11853 10.6655 9.32951 10.4545C9.54049 10.2435 9.82663 10.125 10.125 10.125C10.4234 10.125 10.7095 10.2435 10.9205 10.4545C11.1315 10.6655 11.25 10.9516 11.25 11.25V15.675C11.5923 15.8726 11.8764 16.1569 12.0739 16.4992C12.2714 16.8415 12.3753 17.2298 12.375 17.625ZM23.7938 6.225C23.7014 5.94177 23.5006 5.70671 23.2352 5.57138C22.9698 5.43605 22.6616 5.41151 22.3781 5.50313L21 5.95312V4.5C21 4.20163 20.8815 3.91548 20.6705 3.7045C20.4595 3.49353 20.1734 3.375 19.875 3.375C19.5766 3.375 19.2905 3.49353 19.0795 3.7045C18.8685 3.91548 18.75 4.20163 18.75 4.5V5.95312L17.3719 5.50313C17.2294 5.44899 17.0774 5.42436 16.9252 5.43074C16.7729 5.43712 16.6235 5.47437 16.4861 5.54024C16.3486 5.60611 16.226 5.69921 16.1256 5.81391C16.0253 5.9286 15.9492 6.06249 15.9022 6.20746C15.8551 6.35242 15.838 6.50543 15.8519 6.6572C15.8658 6.80898 15.9104 6.95635 15.9829 7.09037C16.0555 7.2244 16.1545 7.34228 16.274 7.43687C16.3935 7.53146 16.531 7.60078 16.6781 7.64062L18.0563 8.09063L17.2031 9.2625C17.0285 9.50435 16.9562 9.80523 17.0018 10.1C17.0474 10.3948 17.2073 10.6597 17.4469 10.8375C17.6416 10.9755 17.8738 11.0507 18.1125 11.0531C18.2906 11.054 18.4663 11.0118 18.6246 10.9302C18.783 10.8486 18.9192 10.7299 19.0219 10.5844L19.875 9.4125L20.7281 10.5844C20.8308 10.7299 20.967 10.8486 21.1254 10.9302C21.2837 11.0118 21.4594 11.054 21.6375 11.0531C21.8762 11.0507 22.1084 10.9755 22.3031 10.8375C22.5427 10.6597 22.7026 10.3948 22.7482 10.1C22.7938 9.80523 22.7215 9.50435 22.5469 9.2625L21.6938 8.09063L23.0719 7.64062C23.2128 7.59599 23.3435 7.52379 23.4563 7.4282C23.5691 7.33262 23.6618 7.21556 23.729 7.08384C23.7962 6.95212 23.8365 6.80836 23.8476 6.66092C23.8587 6.51348 23.8404 6.3653 23.7938 6.225ZM15 14.1281C15.6433 15.0247 16.0269 16.0814 16.1085 17.1818C16.1902 18.2823 15.9668 19.384 15.4629 20.3657C14.959 21.3475 14.1941 22.1712 13.2524 22.7464C12.3106 23.3216 11.2285 23.6259 10.125 23.6259C9.0215 23.6259 7.93937 23.3216 6.99762 22.7464C6.05588 22.1712 5.29099 21.3475 4.78709 20.3657C4.28319 19.384 4.05979 18.2823 4.14146 17.1818C4.22313 16.0814 4.6067 15.0247 5.25 14.1281V5.25C5.25 3.95707 5.76362 2.71709 6.67786 1.80285C7.5921 0.888615 8.83207 0.375 10.125 0.375C11.4179 0.375 12.6579 0.888615 13.5721 1.80285C14.4864 2.71709 15 3.95707 15 5.25V14.1281ZM13.875 17.625C13.872 16.7496 13.5674 15.902 13.0125 15.225C12.843 15.0263 12.7499 14.7737 12.75 14.5125V5.25C12.75 4.55381 12.4734 3.88613 11.9812 3.39384C11.4889 2.90156 10.8212 2.625 10.125 2.625C9.42881 2.625 8.76113 2.90156 8.26885 3.39384C7.77656 3.88613 7.5 4.55381 7.5 5.25V14.5125C7.49868 14.7807 7.40236 15.0398 7.22813 15.2438C6.84632 15.7082 6.5818 16.2577 6.45686 16.8458C6.33192 17.4339 6.35023 18.0435 6.51024 18.6231C6.67026 19.2026 6.96729 19.7352 7.37628 20.1759C7.78527 20.6167 8.29424 20.9526 8.86027 21.1553C9.4263 21.3581 10.0328 21.4218 10.6286 21.3411C11.2244 21.2603 11.7921 21.0375 12.2837 20.6914C12.7753 20.3453 13.1766 19.886 13.4535 19.3524C13.7304 18.8187 13.875 18.2263 13.875 17.625Z" fill="white"/>
</g>
</svg>
