<svg width="24" height="24" viewBox="0 0 24 24" fill="none" xmlns="http://www.w3.org/2000/svg">
<g id="Icon">
<path id="Vector" d="M11 20.45C9.03333 20.2 7.375 19.3333 6.025 17.85C4.675 16.3667 4 14.6167 4 12.6C4 11.5 4.20433 10.479 4.613 9.537C5.021 8.59567 5.6 7.76667 6.35 7.05L12 1.5L17.65 7.05C18.25 7.65 18.746 8.325 19.138 9.075C19.5293 9.825 19.7917 10.6333 19.925 11.5H17.9C17.7833 10.9333 17.5873 10.3957 17.312 9.887C17.0373 9.379 16.6833 8.91667 16.25 8.5L12 4.3L7.75 8.5C7.16667 9.05 6.72933 9.67067 6.438 10.362C6.146 11.054 6 11.8 6 12.6C6 14.05 6.47933 15.325 7.438 16.425C8.396 17.525 9.58333 18.1917 11 18.425V20.45ZM13.3 15.675L12.7 14.3C13.1333 14.0667 13.5873 13.875 14.062 13.725C14.5373 13.575 15.0167 13.5 15.5 13.5C15.8833 13.5 16.2623 13.5457 16.637 13.637C17.0123 13.729 17.375 13.8417 17.725 13.975C18.025 14.1083 18.3293 14.225 18.638 14.325C18.946 14.425 19.2667 14.475 19.6 14.475C19.9833 14.475 20.3583 14.4083 20.725 14.275C21.0917 14.1417 21.45 13.9833 21.8 13.8L22.4 15.175C21.9667 15.4083 21.5127 15.6 21.038 15.75C20.5627 15.9 20.0833 15.975 19.6 15.975C19.2167 15.975 18.8377 15.929 18.463 15.837C18.0877 15.7457 17.725 15.6333 17.375 15.5C17.075 15.3667 16.7707 15.25 16.462 15.15C16.154 15.05 15.8333 15 15.5 15C15.1167 15 14.7417 15.0667 14.375 15.2C14.0083 15.3333 13.65 15.4917 13.3 15.675ZM13.3 18.675L12.7 17.3C13.1333 17.0667 13.5873 16.875 14.062 16.725C14.5373 16.575 15.0167 16.5 15.5 16.5C15.8833 16.5 16.2623 16.5457 16.637 16.637C17.0123 16.729 17.375 16.8417 17.725 16.975C18.025 17.1083 18.3293 17.225 18.638 17.325C18.946 17.425 19.2667 17.475 19.6 17.475C19.9833 17.475 20.3583 17.4083 20.725 17.275C21.0917 17.1417 21.45 16.9833 21.8 16.8L22.4 18.175C21.9667 18.4083 21.5127 18.6 21.038 18.75C20.5627 18.9 20.0833 18.975 19.6 18.975C19.2167 18.975 18.8377 18.929 18.463 18.837C18.0877 18.7457 17.725 18.6333 17.375 18.5C17.075 18.3667 16.7707 18.25 16.462 18.15C16.154 18.05 15.8333 18 15.5 18C15.1167 18 14.7417 18.0667 14.375 18.2C14.0083 18.3333 13.65 18.4917 13.3 18.675ZM13.3 21.675L12.7 20.3C13.1333 20.0667 13.5873 19.875 14.062 19.725C14.5373 19.575 15.0167 19.5 15.5 19.5C15.8833 19.5 16.2623 19.5457 16.637 19.637C17.0123 19.729 17.375 19.8417 17.725 19.975C18.025 20.1083 18.3293 20.225 18.638 20.325C18.946 20.425 19.2667 20.475 19.6 20.475C19.9833 20.475 20.3583 20.4083 20.725 20.275C21.0917 20.1417 21.45 19.9833 21.8 19.8L22.4 21.175C21.9667 21.4083 21.5127 21.6 21.038 21.75C20.5627 21.9 20.0833 21.975 19.6 21.975C19.2167 21.975 18.8377 21.929 18.463 21.837C18.0877 21.7457 17.725 21.6333 17.375 21.5C17.075 21.3667 16.7707 21.25 16.462 21.15C16.154 21.05 15.8333 21 15.5 21C15.1167 21 14.7417 21.0667 14.375 21.2C14.0083 21.3333 13.65 21.4917 13.3 21.675Z" fill="white"/>
</g>
</svg>
