<svg width="24" height="24" viewBox="0 0 24 24" fill="none" xmlns="http://www.w3.org/2000/svg">
<g id="Icon">
<path id="Vector" d="M19.5 9.75H22.5V11.25H19.5V9.75ZM17.25 5.6895L19.371 3.5685L20.4315 4.629L18.3105 6.75L17.25 5.6895ZM17.25 15.3105L18.3105 14.25L20.4315 16.371L19.371 17.4315L17.25 15.3105ZM12.75 1.5H14.25V4.5H12.75V1.5ZM13.5 6C13.2486 6.00164 12.9977 6.02421 12.75 6.0675V7.6065C12.9944 7.53911 13.2465 7.50332 13.5 7.5C14.2957 7.5 15.0587 7.81607 15.6213 8.37868C16.1839 8.94129 16.5 9.70435 16.5 10.5C16.5 11.2956 16.1839 12.0587 15.6213 12.6213C15.0587 13.1839 14.2957 13.5 13.5 13.5V15C14.6935 15 15.8381 14.5259 16.682 13.682C17.5259 12.8381 18 11.6935 18 10.5C18 9.30653 17.5259 8.16193 16.682 7.31802C15.8381 6.47411 14.6935 6 13.5 6ZM7.5 15.138V5.25H6V15.138C5.49959 15.3149 5.07784 15.6631 4.80928 16.1209C4.54072 16.5787 4.44265 17.1167 4.53241 17.6398C4.62216 18.1629 4.89396 18.6375 5.29976 18.9796C5.70556 19.3217 6.21924 19.5093 6.75 19.5093C7.28077 19.5093 7.79445 19.3217 8.20025 18.9796C8.60605 18.6375 8.87785 18.1629 8.9676 17.6398C9.05735 17.1167 8.95929 16.5787 8.69073 16.1209C8.42217 15.6631 8.00042 15.3149 7.5 15.138Z" fill="white"/>
<path id="Vector_2" d="M6.74992 22.5C5.7164 22.5012 4.70558 22.1969 3.84437 21.6255C2.98317 21.0541 2.30999 20.241 1.90935 19.2883C1.50872 18.3356 1.3985 17.2858 1.59252 16.2706C1.78655 15.2555 2.27617 14.3203 2.99992 13.5825V5.25C2.99992 4.25544 3.39501 3.30161 4.09827 2.59835C4.80153 1.89509 5.75536 1.5 6.74992 1.5C7.74448 1.5 8.69831 1.89509 9.40157 2.59835C10.1048 3.30161 10.4999 4.25544 10.4999 5.25V13.5825C11.2237 14.3203 11.7133 15.2555 11.9073 16.2706C12.1013 17.2858 11.9911 18.3356 11.5905 19.2883C11.1898 20.241 10.5167 21.0541 9.65547 21.6255C8.79426 22.1969 7.78344 22.5012 6.74992 22.5ZM6.74992 3C6.15337 3.0006 5.58142 3.23784 5.15959 3.65967C4.73776 4.0815 4.50052 4.65345 4.49992 5.25V14.2373L4.25092 14.4615C3.68458 14.9677 3.28531 15.6339 3.10596 16.372C2.9266 17.1101 2.97563 17.8853 3.24653 18.5949C3.51744 19.3046 3.99747 19.9152 4.62306 20.346C5.24866 20.7768 5.99034 21.0075 6.74992 21.0075C7.5095 21.0075 8.25118 20.7768 8.87678 20.346C9.50237 19.9152 9.9824 19.3046 10.2533 18.5949C10.5242 17.8853 10.5732 17.1101 10.3939 16.372C10.2145 15.6339 9.81526 14.9677 9.24892 14.4615L8.99992 14.2373V5.25C8.99932 4.65345 8.76208 4.0815 8.34025 3.65967C7.91842 3.23784 7.34647 3.0006 6.74992 3Z" fill="white"/>
</g>
</svg>
